<svg xmlns="http://www.w3.org/2000/svg" viewBox="0 0 512 512"><path d="M480.1 244.8c-2.3 11.6-4.1 23.4-7.1 34.9-11.9 45.1-35.4 82.6-74.9 108.9-25.5 17-54.7 24.3-84.5 26.6-40 3.3-80.3 3.2-121.3 4.4v-80.9c5.4-.2 10.5-.5 15.6-.7 34.6-1.2 69.4-.5 103.9-3.8 59.4-5.6 77.8-45.7 85.2-82.5 9.8-48.2-11.7-95.4-51.9-117.7-25.2-13.9-52.6-21.2-81.3-21.3-77.3-.3-154.5-.1-231.7-.1V32c75 .1 150-.4 224.9.8 23.6.4 47.8 3.2 70.6 9 76.6 19.4 128.3 65.6 146.9 144.5 2.3 9.7 3.9 19.5 5.9 29.4-.3 9.6-.3 19.4-.3 29.1z"/><path d="M33.2 479.9c.2-55.6-.2-111.1.8-166.7.3-19.2 2.1-39 7.1-57.4 11.2-41 43.6-64.3 86.2-64.5 53.8-.2 107.5-.1 161.3 0 3.2 0 6.5.4 10.4.6v79.5H134c-14.4 0-16.5 1.6-18.5 16.2-1 7.7-1.7 15.6-1.7 23.3-.1 56.3-.1 112.7-.1 169H33.2z"/></svg>