<svg xmlns="http://www.w3.org/2000/svg" viewBox="0 0 512 512"><path d="M459.4 145.6c.3 4.6.3 9.3.3 13.9 0 141.4-105.6 304.4-298.6 304.4-59.5 0-114.7-17.6-161.1-48 8.4 1 16.6 1.3 25.3 1.3 49.1 0 94.2-16.9 130.3-45.7-46.1-1-84.8-31.8-98.1-74.2 6.5 1 13 1.7 19.8 1.7 9.4 0 18.8-1.3 27.6-3.6-48.1-9.9-84.1-53-84.1-105V189c14 7.9 30.2 12.9 47.4 13.6-28.3-19.2-46.8-52-46.8-89.1 0-19.9 5.2-38.1 14.3-54 51.7 65 129.3 107.3 216.4 112-1.6-7.9-2.6-16.2-2.6-24.5 0-59 46.8-107 104.9-107 30.2 0 57.5 12.9 76.7 33.8 23.7-4.6 46.5-13.6 66.6-25.8-7.8 24.8-24.4 45.7-46.1 59 21.1-2.3 41.6-8.3 60.4-16.6-14.3 21.1-32.2 40-52.6 55.2z"/></svg>