<svg version="1.1" id="Layer_1" xmlns="http://www.w3.org/2000/svg" x="0" y="0" viewBox="0 0 512 512" xml:space="preserve"><style>.st0{fill:#494949}</style><path class="st0" d="M129.4 388.3c-14.1 0-25.8.3-37.5-.1-21.3-.7-36.2-17.6-36.4-43.9-.5-89.1-.5-178.3 0-267.5.2-28 15.8-44.2 40.9-44.2 66.5-.2 133-.1 199.4-.1 12.3 0 24.7-1.3 36.8.6 5.7.9 10.7 7.8 16.1 12-5.5 3.9-11.1 11.2-16.6 11.3-72.1.6-144.3.4-216.4.4-40.2 0-40.2 0-40.2 49.6v227.7c0 25.4 3.7 29.9 24 30.1 10.7.1 21.5.7 32.2-.1 12.5-.9 17.9 5.2 17.4 20.8-.6 16.3-.1 32.7-.1 50.9 16.2-19 31.9-35.6 45.8-54.2 9.2-12.3 18.8-16.6 32.1-16.4 62.4.8 124.8.4 187.2.3 20.3 0 24.4-4.9 24.4-29.6.1-50.6 0-101.2 0-151.8 0-8.7-1.3-19.5 9.2-19.9 10.8-.4 9.6 10.4 9.6 19.1.1 52.5.2 105 0 157.5-.1 31-13.8 47.3-39.4 47.4-62.9.2-125.8-.3-188.7.6-7.5.1-16.6 5.3-22 11.8-19.8 23.7-38.2 49.3-57.7 73.5-3.5 4.3-9.4 5.6-14.2 8.3-2-6-5.5-12-5.7-18.1-.6-24.5-.2-49.1-.2-76z"/><path class="st0" d="M461 83.8c-2.9 4.8-4.8 9.2-7.6 12.6-36.8 45.7-71.9 93.8-111.4 135.5-18.5 19.5-45.3 27.6-69 38.6-8.2 3.8-14.1-4.7-10.3-15.8 12-35.7 20.3-73.1 45.5-101.1 32.7-36.2 62.8-76 93.4-115 9.8-12.5 16.9-13.4 26.2.1 7.9 11.5 17.2 21.6 25.7 32.5 2.7 3.6 4.7 7.9 7.5 12.6zm-173.2 147c1.4 1.5 2.9 2.9 4.3 4.4 21-8.2 39.9-19.9 55.2-41 17-23.4 35.8-44.9 54.1-66.8 11.6-13.9 23.8-27 35.8-40.6-9.8-11.1-16.8-19.1-23.3-26.3C382 99.1 349 137.6 317.7 178c-11.9 15.3-20 35.1-29.9 52.8zM199.2 104.2h82.6c7.7 0 17.5-.7 15.9 12.8-.5 4.6-10.3 10.7-15.9 10.7-55.6.8-111.2.8-166.7 0-5.5-.1-10.8-7.4-16.2-11.4 5.4-4 10.7-11.3 16.2-11.6 28-1.1 56.1-.5 84.1-.5zM171.5 176.2c17.9 0 35.8-.9 53.7.5 5.7.5 15.2 6.3 15.9 11.1 1.7 12.4-7.7 12.1-14.9 12.1-37.3.1-74.7.5-112-.5-5.1-.1-10.2-6.9-15.2-10.6 5.3-4.2 10.3-11.7 15.8-12.1 18.8-1.5 37.7-.5 56.7-.5zM171.5 248c18.4 0 36.8-.8 55.2.5 5.2.4 10.1 7.1 15.1 10.9-4.7 4-9.4 11.5-14.2 11.6-38.3 1-76.7.9-115 0-4.6-.1-9.1-6.9-13.6-10.6 4.8-4.2 9.4-11.5 14.3-11.9 19.3-1.3 38.8-.5 58.2-.5z"/></svg>