<svg xmlns="http://www.w3.org/2000/svg" viewBox="0 0 512 512"><path d="M429.8 114.2c-1.3-1.6-2.1-4.7-1.4-6.7 7.1-23.6 5.3-46.7-3.3-69.6-.7-1.8-3.8-4-5.5-3.8-7.1.5-14.4 1-21.3 2.8-18.5 5-34.7 14.4-50.7 24.4-2.3 1.4-6.1 2.1-8.7 1.4-46-11.1-91.9-11.2-138 .2-2.3.5-5.5-.2-7.7-1.4-13.4-6.8-26.2-14.9-40-20.7-9.8-4.1-21.1-5.1-31.9-6.9-1.8-.3-5.2 1.8-5.8 3.4-8.4 22.2-10.7 44.9-3.8 67.9 1.2 4.1 1 6.9-2 10.2-12.4 14.3-20.4 30.8-23.8 49.2-4.7 25.5-2.5 50.7 3.8 75.7 4.2 16.9 11.7 32.5 23.3 46 18.4 21.6 42.9 33.3 70.4 39.8 10.6 2.4 21.4 4.2 32.6 6.2-9.9 10.3-15 22.5-17.4 35.9-.2 1.3-1.7 2.9-3 3.4-15.5 6.2-31.3 8.9-47.7 4.1-15.8-4.7-26.3-15.4-34.4-28.7-8.7-14.2-20.4-25.2-37.6-29-5.3-1.2-11.3-.6-16.7.2-4.3.6-5.3 4.1-2.5 7.5 2 2.4 4.2 4.9 6.8 6.4 18.2 10.9 28.4 27.4 35.8 46.1 4.6 11.6 12.5 20.9 23 28.1 15.9 10.9 34.1 13.7 53.1 12.4 7.1-.5 14.2-1.5 21.6-2.4.2 1.4.5 2.7.5 4 .2 14.1.3 28.2.4 42.3 0 3.8-.4 6.7-1.3 9 25.4 9.7 74.9 20 147.5-1.2-.8-2.4-1.1-5.1-1-8.1.2-26 .5-52 .2-78.1-.1-7.8-1.4-15.7-3-23.4-2.3-10.9-7.8-20.4-16.1-29 3.2-.5 5.4-.7 7.6-1.2 13.5-2.9 27.3-4.9 40.4-9 40.7-12.5 67.5-38.8 77.9-78.9 4.1-16 6-32.8 6.9-49.4 1.4-29.1-7.5-56-27.2-79.1z" fill="#494949"/></svg>